<svg width="132" height="26" viewBox="0 0 132 26" fill="none" xmlns="http://www.w3.org/2000/svg">
<path d="M0.294922 0.709961H16.3364C19.2892 0.862956 20.8268 2.38525 20.9492 5.27686V21.4102C20.8727 24.363 19.3428 25.8929 16.3594 26H0.294922V0.709961ZM16.3594 5.2998H4.88477V21.4102H16.3594V5.2998ZM41.6035 21.4102V0.709961H46.1934V21.3643C46.1169 24.3171 44.541 25.8623 41.4658 26H30.1748C27.2067 25.847 25.6615 24.3094 25.5391 21.3872V0.709961H30.1289V21.4102H41.6035ZM55.373 0.709961V11.1289H66.8477V0.709961H71.4375V26H66.8477V15.7188H55.373V26H50.7832V0.709961H55.373ZM92.0918 14.4336V5.3457H80.6172V14.4336H92.0918ZM80.6172 19.0234V26H76.0273V5.3457C76.1344 2.3929 77.6567 0.862956 80.5942 0.755859H92.0918C95.0446 0.832357 96.5745 2.36995 96.6816 5.36865V26H92.0918V19.0234H80.6172ZM105.861 10.6699H117.336V5.2998H105.861V10.6699ZM101.271 26V0.709961H117.29C120.304 0.817057 121.849 2.33936 121.926 5.27686V9.13232C121.865 10.8612 121.008 12.1463 119.355 12.9878C121.008 13.8293 121.865 15.1068 121.926 16.8203V21.4102C121.849 24.3171 120.342 25.847 117.405 26H101.271ZM117.336 21.4102V15.2598H105.861V21.4102H117.336ZM126.516 0.801758H131.105V26H126.516V0.801758Z" fill="#055D59"/>
</svg>
