<svg width="66" height="66" viewBox="0 0 66 66" fill="none" xmlns="http://www.w3.org/2000/svg">
<circle cx="33" cy="33" r="33" fill="#D9D9D9"/>
<rect x="23.3004" y="6" width="18.7387" height="5.03267" fill="#055D59"/>
<path d="M47.7677 33.3584C45.0265 29.1182 42.1996 17.9214 41.1289 12.853H24.4247C24.2105 18.2497 20.0523 28.7719 18 33.3584C30.9029 47.3857 30.1814 55.7683 30.9488 61.2293C32.1955 61.4511 34.8571 61.3578 34.8571 61.2293C34.1611 45.5424 47.7142 33.3584 47.7677 33.3584Z" fill="#055D59"/>
<rect x="32.0272" y="33.7332" width="1.71325" height="27.6261" fill="white"/>
<circle cx="32.8609" cy="63.4474" r="1.55263" fill="#055D59"/>
<path d="M33.001 21H36.7904C38.4102 21.1467 39.4801 21.81 40 22.99V33C39.4401 34.16 38.3736 34.8267 36.8004 35H33.001V33H33.5009V23H33.001V21ZM38.5002 24C38.1403 23.3733 37.457 23.04 36.4505 23H35.0007V33H36.4505C37.417 32.9533 38.1003 32.62 38.5002 32V24Z" fill="white"/>
<path d="M32.999 21H29.2096C27.5898 21.1467 26.5199 21.81 26 22.99V33C26.5599 34.16 27.6264 34.8267 29.1996 35H32.999V33H32.4991V23H32.999V21ZM27.4998 24C27.8597 23.3733 28.543 23.04 29.5495 23H30.9993V33H29.5495C28.583 32.9533 27.8997 32.62 27.4998 32V24Z" fill="white"/>
</svg>
